/* XPM */
static char *kryss[] = {
/* columns rows colors chars-per-pixel */
"32 32 5 1 ",
". c none",
"B c red",
"C c blue",
"D c darkred",
"E c darkblue",
/* pixels */
"................................",
"....D.........EEEE.........D....",
"...DBD.....EEECCCCEEE.....DBD...",
"..DBBBD..EECCCCCCCCCCEE..DBBBD..",
".DBBBBBDECCCCCCCCCCCCCCEDBBBBBD.",
"..DBBBBBDCCCCCCCCCCCCCCCEBBBBD..",
"...DBBBBBDCCCCEEEECCCCCCCEBBD...",
"....DBBBBBDCEE....EECCCCCCED....",
"....EDBBBBBD........ECCCCCCE....",
"...ECCDBBBBBD......DBECCCCCCE...",
"...ECCCDBBBBBD....DBBBECCCCCE...",
"..ECCCCCDBBBBBD..DBBBBBECCCCCE..",
"..ECCCCE.DBBBBBDDBBBBBD.ECCCCE..",
"..ECCCCE..DBBBBBBBBBBD..ECCCCE..",
".ECCCCE....DBBBBBBBBD....ECCCCE.",
".ECCCCE.....DBBBBBBD.....ECCCCE.",
".ECCCCE.....DBBBBBBD.....ECCCCE.",
".ECCCCE....DBBBBBBBBD....ECCCCE.",
"..ECCCCE..DBBBBBBBBBBD..ECCCCE..",
"..ECCCCE.DBBBBBDDBBBBBD.ECCCCE..",
"..ECCCCCDBBBBBD..DBBBBBECCCCCE..",
"...ECCCDBBBBBD....DBBBECCCCCE...",
"...ECCDBBBBBD......DBECCCCCCE...",
"....EDBBBBBD........ECCCCCCE....",
"....DBBBBBDCEE....EECCCCCCED....",
"...DBBBBBDCCCCEEEECCCCCCCEBBD...",
"..DBBBBBDCCCCCCCCCCCCCCCEBBBBD..",
".DBBBBBDECCCCCCCCCCCCCCEDBBBD...",
"..DBBBD..EECCCCCCCCCCEE..DBD....",
"...DBD.....EEECCCCEEE.....D.....",
"....D.........EEEE..............",
"................................",
};
