/* XPM */
static char *kryss[] = {
/* columns rows colors chars-per-pixel */
"32 32 5 1 ",
". c none",
"B c red",
"C c blue",
"D c darkred",
"E c darkblue",
/* pixels */
"................................",
"..............EEEE..............",
".....D.....EEECCCCEEE.....D.....",
"....DBD..EECCCCCCCCCCEE..DBD....",
"...DBBBDECCCCCCCCCCCCCCEDBBBD...",
"..DBBBBECCCCCCCCCCCCCCCCEBBBBD..",
"...DBBECCCCCCCEEEECCCCCCCEBBD...",
"....DECCCCCCEE....EECCCCCCED....",
"....ECCCCCCE........ECCCCCCE....",
"...ECCCCCCEBD......DBECCCCCCE...",
"...ECCCCCEBBBD....DBBBECCCCCE...",
"..ECCCCCEBBBBBD..DBBBBBECCCCCE..",
"..ECCCCE.DBBBBBDDBBBBBD.ECCCCE..",
"..ECCCCE..DBBBBBBBBBBD..ECCCCE..",
".ECCCCE....DBBBBBBBBD....ECCCCE.",
".ECCCCE.....DBBBBBBD.....ECCCCE.",
".ECCCCE.....DBBBBBBD.....ECCCCE.",
".ECCCCE....DBBBBBBBBD....ECCCCE.",
"..ECCCCE..DBBBBBBBBBBD..ECCCCE..",
"..ECCCCE.DBBBBBDDBBBBBD.ECCCCE..",
"..ECCCCCDBBBBBD..DBBBBBDCCCCCE..",
"...ECCCDBBBBBD....DBBBBBDCCCE...",
"...ECCDBBBBBD......DBBBBBDCCE...",
"....EDBBBBBD........DBBBBBDE....",
"....DBBBBBDCEE....EECDBBBBBD....",
"...DBBBBBDCCCCEEEECCCCDBBBBBD...",
"..DBBBBBDCCCCCCCCCCCCCCDBBBBBD..",
".DBBBBBDECCCCCCCCCCCCCCEDBBBBBD.",
"..DBBBD..EECCCCCCCCCCEE..DBBBD..",
"...DBD.....EEECCCCEEE.....DBD...",
"....D.........EEEE.........D....",
"................................",
};
