/* XPM */
static char *kryss[] = {
/* columns rows colors chars-per-pixel */
"32 32 5 1 ",
". c none",
"B c red",
"C c blue",
"D c darkred",
"E c darkblue",
/* pixels */
".............EEEE...............",
"..........EEECCCCEEE............",
".....D..EECCCCCCCCCCEE......D...",
"....DBDECCCCCCCCCCCCCCE....DBD..",
"...DBBECCCCCCCCCCCCCCCCE..DBBBD.",
"..DBBECCCCCCCEEEECCCCCCCEDBBBBBD",
"...DECCCCCCEE....EECCCCCDBBBBBD.",
"...ECCCCCCE........ECCCDBBBBBD..",
"..ECCCCCCEBD........ECDBBBBBD...",
"..ECCCCCEBBBD........DBBBBBD....",
".ECCCCCEBBBBBD......DBBBBBDCE...",
".ECCCCE.DBBBBBD....DBBBBBDCCE...",
".ECCCCE..DBBBBBD..DBBBBBDCCCE...",
"ECCCCE....DBBBBBDDBBBBBDECCCCE..",
"ECCCCE.....DBBBBBBBBBBD.ECCCCE..",
"ECCCCE......DBBBBBBBBD..ECCCCE..",
"ECCCCE.......DBBBBBBD...ECCCCE..",
".ECCCCE......DBBBBBBD..ECCCCE...",
".ECCCCE.....DBBBBBBBBD.ECCCCE...",
".ECCCCCE...DBBBBBBBBBBDCCCCCE...",
"..ECCCCCE.DBBBBBDDBBBBBDCCCE....",
"..ECCCCCCEBBBBBD..DBBBBBDCCE....",
"...ECCCCCCEBBBD....DBBBBBDE.....",
"....ECCCCCCEED...EECDBBBBBD.....",
".....ECCCCCCCEEEECCCCDBBBBBD....",
".....DECCCCCCCCCCCCCCCDBBBBBD...",
"....DBBECCCCCCCCCCCCCCEDBBBBBD..",
"...DBBBBEECCCCCCCCCCEE..DBBBBBD.",
"..DBBBBBD.EEECCCCEEE.....DBBBBBD",
"...DBBBD.....EEEE.........DBBBD.",
"....DBD....................DBD..",
".....D......................D...",
};
