/* XPM */
static char *kryss[] = {
/* columns rows colors chars-per-pixel */
"32 32 5 1 ",
". c none",
"B c red",
"C c blue",
"D c darkred",
"E c darkblue",
/* pixels */
"................................",
"....D.........EEEE.........D....",
"...DBD.....EEECCCCEEE.....DBD...",
"..DBBBD..EECCCCCCCCCCEE..DBBBD..",
".DBBBBBDECCCCCCCCCCCCCCEDBBBBBD.",
"..DBBBBBDCCCCCCCCCCCCCCDBBBBBD..",
"...DBBBBBDCCCCEEEECCCCDBBBBBD...",
"....DBBBBBDCEE....EECDBBBBBD....",
"....EDBBBBBD........DBBBBBDE....",
"...ECCDBBBBBD......DBBBBBDCCE...",
"...ECCCDBBBBBD....DBBBBBDCCCE...",
"..ECCCCCDBBBBBD..DBBBBBDCCCCCE..",
"..ECCCCE.DBBBBBDDBBBBBD.ECCCCE..",
"..ECCCCE..DBBBBBBBBBBD..ECCCCE..",
".ECCCCE....DBBBBBBBBD....ECCCCE.",
".ECCCCE.....DBBBBBBD.....ECCCCE.",
".ECCCCE.....DBBBBBBD.....ECCCCE.",
".ECCCCE....DBBBBBBBBD....ECCCCE.",
"..ECCCCE..DBBBBBBBBBBD..ECCCCE..",
"..ECCCCE.DBBBBBDDBBBBBD.ECCCCE..",
"..ECCCCCEBBBBBD..DBBBBBECCCCCE..",
"...ECCCDCEBBBD....DBBBECCCCCE...",
"...ECCCCCCEBD......DBECCCCCCE...",
"....ECCCCCCE........ECCCCCCE....",
"....DECCCCCCEE....EECCCCCCED....",
"...DBBECCCCCCCEEEECCCCCCCEBBD...",
"..DBBBBECCCCCCCCCCCCCCCCEBBBBD..",
"...DBBBDECCCCCCCCCCCCCCEDBBBD...",
"....DBD..EECCCCCCCCCCEE..DBD....",
".....D.....EEECCCCEEE.....D.....",
"..............EEEE..............",
"................................",
};
