/* XPM */
static char *kryss[] = {
/* columns rows colors chars-per-pixel */
"32 32 5 1 ",
". c none",
"B c red",
"C c blue",
"D c darkred",
"E c darkblue",
/* pixels */
"................................",
"..............EEEE.........D....",
".....D.....EEECCCCEEE.....DBD...",
"....DBD..EECCCCCCCCCCEE..DBBBD..",
"...DBBBDECCCCCCCCCCCCCCEDBBBBBD.",
"..DBBBBECCCCCCCCCCCCCCCDBBBBBD..",
"...DBBECCCCCCCEEEECCCCDBBBBBD...",
"....DECCCCCCEE....EECDBBBBBD....",
"....ECCCCCCE........DBBBBBDE....",
"...ECCCCCCEBD......DBBBBBDCCE...",
"...ECCCCCEBBBD....DBBBBBDCCCE...",
"..ECCCCCEBBBBBD..DBBBBBDCCCCCE..",
"..ECCCCE.DBBBBBDDBBBBBD.ECCCCE..",
"..ECCCCE..DBBBBBBBBBBD..ECCCCE..",
".ECCCCE....DBBBBBBBBD....ECCCCE.",
".ECCCCE.....DBBBBBBD.....ECCCCE.",
".ECCCCE.....DBBBBBBD.....ECCCCE.",
".ECCCCE....DBBBBBBBBD....ECCCCE.",
"..ECCCCE..DBBBBBBBBBBD..ECCCCE..",
"..ECCCCE.DBBBBBDDBBBBBD.ECCCCE..",
"..ECCCCCEBBBBBD..DBBBBBDCCCCCE..",
"...ECCCCCEBBBD....DBBBBBDCCCE...",
"...ECCCCCCEBD......DBBBBBDCCE...",
"....ECCCCCCE........DBBBBBDE....",
"....DECCCCCCEE....EECDBBBBBD....",
"...DBBECCCCCCCEEEECCCCDBBBBBD...",
"..DBBBBECCCCCCCCCCCCCCCDBBBBBD..",
"...DBBBDECCCCCCCCCCCCCCEDBBBBBD.",
"....DBD..EECCCCCCCCCCEE..DBBBD..",
".....D.....EEECCCCEEE.....DBD...",
"..............EEEE.........D....",
"................................",
};
